<?xml version="1.0" encoding="UTF-8"?>
<svg width="128" height="128" clip-rule="evenodd" fill-rule="evenodd" stroke-linejoin="round" stroke-miterlimit="2" version="1.1" viewBox="0 0 128 128" xml:space="preserve" xmlns="http://www.w3.org/2000/svg"><path d="m60.859 14v72.729l-0.67146-0.08571c-1.6286-0.18578-2.0429-0.25714-3.2571-0.52864-5.0858-1.1285-8.5143-3.7999-10.286-7.9999-0.44282-1.0286-0.94286-2.6-1.1571-3.5858-0.25714-1.1714-0.50004-2.5428-0.5714-3.1572-0.04285-0.39996-0.11432-0.88564-0.14292-1.0857-0.19993-1.1429-0.2714-5.6-0.2714-18.386v-14.329h-15.929v2.7142l0.40008 0.08572c2.6428 0.58575 4.4143 1.8286 4.9999 3.5143 0.64286 1.8286 0.77143 3.3572 0.82864 9.6144 0.09997 9.9857 0.18568 15.557 0.25714 16.071 0.0285 0.2715 0.09996 0.81428 0.14282 1.2144 0.11432 0.85714 0.3 1.9571 0.6 3.5856 0.0286 0.15718 0.25714 0.97146 0.50004 1.7858 1.9286 6.5 5.6285 10.529 11.857 12.914 3.1572 1.2144 7.7143 1.9858 12.243 2.0571l0.45718 0.01435v22.857h9.1428v-22.857l0.3285-0.01435c1.6714-0.07136 3.4858-0.19993 4.8144-0.34286 3.0857-0.35711 6.2856-1.2857 9.0714-2.6428 5.4286-2.6715 8.7857-7.0572 10.5-13.729 0.17143-0.65711 0.34287-1.3571 0.37148-1.5571 0.04281-0.20004 0.12856-0.68572 0.20003-1.0714 0.07133-0.39996 0.17143-0.99996 0.21428-1.3572 0.05711-0.35711 0.11421-0.84279 0.15707-1.0714 0.21429-1.5142 0.2715-3.4286 0.41432-16.143 0.02859-3.3 0.08572-6.2 0.12857-6.4286 0.02859-0.24289 0.11432-0.78568 0.15718-1.2143 0.34286-2.7429 1.3714-3.8715 4.5-4.9001l1.3571-0.45707-0.0142-1.1429c-0.0142-0.62861-0.0286-1.2286-0.0429-1.3286-0.0142-0.14282-1.6428-0.17143-7.9-0.14282l-7.8857 0.04285-0.01438 14.714c-0.01422 8.0858-0.07133 15.257-0.12857 15.929-0.22854 2.4715-0.28565 2.9-0.52854 4.3572-0.08571 0.47143-0.18568 1.0143-0.21429 1.2142-0.12857 0.67146-0.77142 2.9286-1.0428 3.6572-0.81428 2.1-1.6143 3.3857-3 4.7428-2.0429 2.0143-4.5572 3.1858-8.5858 4.0143-0.74282 0.14282-1.6999 0.31425-2.1 0.35711l-0.75704 0.08572v-72.714z" fill="#fff" fill-rule="nonzero" opacity=".04" stroke-width="1.0714"/></svg>
